# xmcd
# Track frame offsets:
# 150
# 9116
# 21781
# 35591
# 51433
# 68887
# 81461
#
# Disc length: 1241 seconds
# Revision: 0
# Processed by: cddbd v1.4PL0 Copyright (c) Steve Scherf et al.
# Submitted via: VisiTrax 2.9.5.181 - For more info visit www.synapsa.com
#
DISCID=5404d707
DTITLE=James Hunter Band - Demo
DYEAR=2002
DGENRE=Blues
TTITLE0=Kick it around
TTITLE1=Ain´t it funny
TTITLE2=Believe what I say
TTITLE3=Two can play
TTITLE4=Walk away
TTITLE5=I wanna get old with you
TTITLE6=The very thought of you
EXTD=
EXTT0=
EXTT1=
EXTT2=
EXTT3=
EXTT4=
EXTT5=
EXTT6=
PLAYORDER=
